<svg version="1" xmlns="http://www.w3.org/2000/svg" width="682.667" height="682.667" viewBox="0 0 512.000000 512.000000"><path d="M232.6 114.5c-35.5 5.8-65.2 21-90.7 46.4-15.9 16-23.2 26.8-37.6 56.2-12.5 25.2-18.5 35-27.6 44.7-44.4 47.4-62.4 93.2-48.2 122.9 5.2 11.1 9 15.9 16.6 21.2 18.8 13.3 46.7 19.4 87.4 19.4 78 0 164.3-27.1 236-74 75.8-49.7 129.4-115.8 129.8-160.3.1-8.3-.3-10.2-2.6-15.4-3.4-7.4-13.3-18.5-21.1-23.9-22-14.9-59.1-22-112.1-21.5-23.4.3-23.3.3-48.5-7.7-23.4-7.4-30.7-8.6-53-9-13.8-.3-22.1 0-28.4 1zm154.9 151c21.5 7.2 18.9 26.8-7 51.4-50.8 48.2-158.3 86.6-191.8 68.4-6.3-3.5-8.7-7.5-8.7-14.4.1-9.8 7.1-21.1 21.7-34.9 35.8-34 103.5-65.7 153.9-72 9.8-1.2 26-.5 31.9 1.5z"/></svg>